# xmcd CD database file
#
# Track frame offsets:
#	150
#	14951
#	26998
#	38929
#	54685
#
# Disc length: 997 seconds
#
# Revision: 2
# Processed by: cddbd v1.5.2PL0 Copyright (c) Steve Scherf et al.
# Submitted via: CDex 1.51
#
DISCID=4703e305
DTITLE=Jun Miyake - Sounds of Lexus IS F
DYEAR=2007
DGENRE=New Age
TTITLE0=volupte
TTITLE1=Mon reve en plastique
TTITLE2=luxe
TTITLE3=Permettez Please
TTITLE4=est-ce que tu peux me voir?
EXTD=YEAR: 2007
EXTT0=
EXTT1=
EXTT2=
EXTT3=
EXTT4=
PLAYORDER=
